PathFileType	4	(X/Y/Z)	C:/Users/DISI/Documents/SIV_Franzin_Parola/Rigid-Body Object Trackig/Logs/Alza_001.trc
DataRate	CameraRate	NumFrames	NumMarkers	Units	OrigDataRate	OrigDataStartFrame	OrigNumFrames
360	360	65	25	m	360	0	10514
Frame#	Time	Marker1			Marker2			Marker3			Marker4			Marker5			Marker6			Unlabeled 1323			Unlabeled 1324			Unlabeled 1325			Unlabeled 1326			Unlabeled 1328			Unlabeled 1329			Unlabeled 1330			Unlabeled 1331			Unlabeled 1332			Unlabeled 1333			Unlabeled 1334			Unlabeled 1335			Unlabeled 1336			Unlabeled 1337			Unlabeled 1338			Unlabeled 1340			Unlabeled 1341			Unlabeled 1342			Unlabeled 1344			
		X1	Y1	Z1	X2	Y2	Z2	X3	Y3	Z3	X4	Y4	Z4	X5	Y5	Z5	X6	Y6	Z6	X7	Y7	Z7	X8	Y8	Z8	X9	Y9	Z9	X10	Y10	Z10	X11	Y11	Z11	X12	Y12	Z12	X13	Y13	Z13	X14	Y14	Z14	X15	Y15	Z15	X16	Y16	Z16	X17	Y17	Z17	X18	Y18	Z18	X19	Y19	Z19	X20	Y20	Z20	X21	Y21	Z21	X22	Y22	Z22	X23	Y23	Z23	X24	Y24	Z24	X25	Y25	Z25
0	0	0.206452	0.137652	0.052951	0.138581	0.14242	0.0533616	0.230513	0.139319	0.171792	0.142014	0.145163	0.179666	0.228633	0.136886	0.0993219	0.243066	0.137781	0.131041																																																									
1	0.00277778																																																																											
2	0.00555556	0.206458	0.13764	0.052962	0.138579	0.14242	0.053376	0.230506	0.139339	0.171802	0.142011	0.145181	0.179671	0.228636	0.136892	0.0993176	0.243082	0.13777	0.131041	0.225929	0.143056	0.109695																																																						
3	0.00833333	0.207308	0.139999	0.0531483	0.138573	0.142426	0.0533817	0.230507	0.139334	0.171799	0.141996	0.145168	0.179662	0.228658	0.136876	0.099335	0.243086	0.137767	0.131044	0.225928	0.14304	0.109693																																																						
4	0.0111111																																																																											
5	0.0138889	0.207289	0.139984	0.0531533	0.138551	0.142411	0.0533797	0.230504	0.139322	0.171797	0.142007	0.145173	0.179665	0.228669	0.136856	0.099304	0.24309	0.137781	0.131035	0.225899	0.143055	0.109704																																																						
6	0.0166667	0.207319	0.139992	0.0531272	0.138547	0.142415	0.053391	0.230542	0.13931	0.171803	0.141995	0.145169	0.179666	0.22507	0.139629	0.103758	0.243072	0.137778	0.13104																																																									
7	0.0194444																																																																											
8	0.0222222	0.207307	0.139981	0.0531444	0.138553	0.14241	0.0533959	0.230533	0.139303	0.171803	0.142005	0.145152	0.179683	0.228671	0.136842	0.0993046	0.243099	0.137756	0.131048																																																									
9	0.025																																																																											
10	0.0277778																																																																											
11	0.0305556	0.207313	0.139977	0.0531429	0.138545	0.142438	0.0534185	0.230568	0.139276	0.171822	0.14199	0.145151	0.179678	0.228631	0.136872	0.0993341	0.243092	0.137742	0.131051	0.225943	0.143019	0.109731																																																						
12	0.0333333	0.207312	0.139961	0.0531485	0.138566	0.142435	0.0533999	0.230571	0.13928	0.171813	0.142011	0.145162	0.179692	0.228615	0.136873	0.0993234	0.243099	0.137739	0.131056	0.225311	0.143301	0.109276																																																						
13	0.0361111																																																																											
14	0.0388889	0.206193	0.138158	0.0532163	0.138544	0.142433	0.053406	0.230603	0.139271	0.171825	0.141995	0.145155	0.17969	0.228637	0.136887	0.099317	0.243095	0.137739	0.131049	0.225914	0.143025	0.109705																																																						
15	0.0416667	0.206187	0.138152	0.0532472	0.138582	0.142423	0.0533985	0.230569	0.139264	0.171825	0.142005	0.145162	0.179672	0.22865	0.136857	0.0993034	0.243105	0.137734	0.131052																																																									
16	0.0444444																																																																											
17	0.0472222	0.206189	0.138166	0.0532288	0.138555	0.142438	0.0533957	0.230553	0.139258	0.171835	0.141989	0.145161	0.179669	0.22863	0.13689	0.0993342	0.243097	0.137743	0.131039	0.225911	0.14302	0.109687																																																						
18	0.05	0.20731	0.139958	0.053149	0.138551	0.142455	0.0534147	0.23057	0.139268	0.171833	0.141997	0.145164	0.179686	0.228627	0.136897	0.099334	0.243102	0.13774	0.131059	0.225927	0.143034	0.109691																																																						
19	0.0527778																																																																											
20	0.0555556	0.2073	0.139973	0.0531548	0.138548	0.142453	0.0534114	0.230552	0.139291	0.171815	0.141987	0.145169	0.179663	0.228626	0.136881	0.0993397	0.2431	0.137746	0.131045	0.22593	0.143042	0.109713																																																						
21	0.0583333	0.207302	0.139984	0.0531496	0.138577	0.142444	0.053395	0.230554	0.139303	0.171827	0.142003	0.145179	0.179667	0.228653	0.136879	0.0993263	0.243092	0.137755	0.131045																																																									
22	0.0611111																																																																											
23	0.0638889	0.206452	0.137656	0.052974	0.138571	0.142432	0.0533845	0.230548	0.139315	0.17182	0.142011	0.145178	0.179658	0.22863	0.136895	0.0993446	0.243089	0.137764	0.131047																																																									
24	0.0666667	0.207304	0.139993	0.0531425	0.138555	0.14245	0.0533997	0.230544	0.139326	0.171806	0.142009	0.145171	0.179682	0.22865	0.136874	0.0993312	0.243087	0.137763	0.131046	0.225917	0.143069	0.109709																																																						
25	0.0694444																																																																											
26	0.0722222	0.206441	0.137653	0.0529532	0.138581	0.142455	0.0533816	0.230513	0.139325	0.171807	0.141995	0.145179	0.179667	0.228691	0.136851	0.0993254	0.243098	0.137779	0.131033	0.225913	0.14306	0.109667																																																						
27	0.075	0.206463	0.137634	0.0529514	0.137401	0.143858	0.0540132	0.230515	0.139344	0.171816	0.14201	0.145178	0.179667	0.228654	0.136877	0.099342	0.243083	0.137778	0.131043																																																									
28	0.0777778																																																																											
29	0.0805556	0.207289	0.140007	0.0531538	0.138561	0.142451	0.0533741	0.230521	0.13935	0.171804	0.14201	0.14519	0.17966	0.228665	0.136868	0.0993181	0.243074	0.13778	0.131055	0.22593	0.143061	0.109677																																																						
30	0.0833333																																																																											
31	0.0861111																																																																											
32	0.0888889	0.206439	0.137638	0.0529516	0.137393	0.143852	0.0540026	0.230525	0.139333	0.171799	0.142001	0.145174	0.179677	0.228651	0.13688	0.0993184	0.243081	0.137777	0.131035	0.22592	0.143045	0.10969																																																						
33	0.0916667	0.20645	0.137641	0.0529564	0.138571	0.142434	0.0533719	0.230512	0.139323	0.171802	0.142001	0.145161	0.179661	0.228655	0.13687	0.0993144	0.243061	0.137778	0.131048																																																									
34	0.0944444																																																																											
35	0.0972222	0.206436	0.137631	0.0529658	0.138551	0.142423	0.0533616	0.230522	0.139317	0.171802	0.141999	0.145166	0.179665	0.228623	0.136888	0.0993077	0.243081	0.137756	0.131043	0.225936	0.14304	0.10973																																																						
36	0.1	0.206435	0.137637	0.0529629	0.138574	0.142433	0.0533796	0.230523	0.139298	0.171811	0.141989	0.145168	0.17967	0.228671	0.136847	0.0993052	0.243064	0.137766	0.131046	0.225919	0.143039	0.109697																																																						
37	0.102778																																																																											
38	0.105556	0.206436	0.137613	0.0529458	0.138556	0.142417	0.0533833	0.230526	0.139312	0.1718	0.141991	0.145167	0.179659	0.228651	0.136854	0.0993217	0.243072	0.137761	0.131051	0.225917	0.143029	0.109683																																																						
39	0.108333																																																																											
40	0.111111																																																																											
41	0.113889	0.207303	0.139976	0.0531345	0.138569	0.14241	0.053396	0.230517	0.139312	0.171809	0.141994	0.145154	0.179681	0.228677	0.136852	0.099309	0.24309	0.137757	0.131044	0.225331	0.143273	0.109265																																																						
42	0.116667	0.207292	0.139991	0.0531339	0.138539	0.142415	0.0534067	0.230529	0.139298	0.171795	0.141995	0.145162	0.17968	0.225651	0.134588	0.0989921	0.243084	0.137737	0.131042																																																									
43	0.119444																																																																											
44	0.122222	0.207285	0.13996	0.0531519	0.138537	0.142433	0.0534028	0.230548	0.139311	0.171809	0.142006	0.145152	0.179675	0.228629	0.136882	0.0993182	0.243089	0.137751	0.131056																																																									
45	0.125	0.207309	0.139976	0.0531512	0.138563	0.142434	0.0533911	0.230555	0.139296	0.171823	0.141991	0.145155	0.179669	0.228619	0.136881	0.0993515	0.243084	0.13776	0.131043	0.225923	0.14304	0.109719																																																						
46	0.127778																																																																											
47	0.130556	0.206428	0.137642	0.0529774	0.13855	0.142434	0.0533929	0.230542	0.139305	0.171795	0.142	0.145166	0.179667	0.228643	0.136859	0.0993351	0.24309	0.137755	0.131032	0.22593	0.143039	0.109702																																																						
48	0.133333	0.206441	0.137622	0.0529669	0.138573	0.142434	0.053408	0.230547	0.139309	0.17181	0.141991	0.145165	0.179682	0.228677	0.136868	0.0993393	0.243078	0.137765	0.131047																																																									
49	0.136111																																																																											
50	0.138889	0.206453	0.137643	0.0529552	0.13856	0.142438	0.053409	0.230534	0.13932	0.171805	0.142003	0.14517	0.179677	0.228632	0.136898	0.0993396	0.243081	0.137774	0.131039	0.225908	0.143031	0.109706																																																						
51	0.141667	0.207297	0.139987	0.053166	0.138563	0.142439	0.053407	0.230558	0.139302	0.171817	0.142014	0.145171	0.179677	0.228629	0.136908	0.0993214	0.243109	0.137764	0.131044	0.225927	0.143049	0.109709																																																						
52	0.144444																																																																											
53	0.147222	0.206457	0.137644	0.0529722	0.138565	0.142426	0.0533992	0.230555	0.139308	0.171823	0.142002	0.145181	0.179673	0.228652	0.136886	0.0993366	0.243093	0.13777	0.131055	0.22594	0.143044	0.109696																																																						
54	0.15																																																																											
55	0.152778	0.206182	0.138182	0.0532372	0.138575	0.142437	0.053405	0.230528	0.139306	0.171829	0.141999	0.145175	0.179674	0.228661	0.136877	0.0993224	0.243088	0.137768	0.131061	0.225311	0.143304	0.109236																																																						
56	0.155556	0.206469	0.137632	0.0529609	0.138575	0.142422	0.0533842	0.230553	0.139307	0.171805	0.142013	0.145172	0.179667	0.228653	0.136886	0.099338	0.243078	0.137775	0.131054	0.225919	0.143036	0.109653																																																						
57	0.158333																																																																											
58	0.161111	0.207289	0.139981	0.0531523	0.138555	0.142442	0.0534014	0.230565	0.139291	0.171823	0.142014	0.145172	0.179669	0.228652	0.136875	0.0993373	0.243088	0.137763	0.13105	0.225914	0.143039	0.109691																																																						
59	0.163889																																																																											
60	0.166667																																																																											
61	0.169444	0.207317	0.139981	0.0531326	0.138502	0.14285	0.0536099	0.230556	0.139292	0.17181	0.142006	0.145178	0.179672	0.228639	0.136873	0.0993259	0.243101	0.137757	0.131054	0.225929	0.14305	0.109697																																																						
62	0.172222																																																																											
63	0.175																																																																											
64	0.177778	0.207298	0.139977	0.0531439	0.138555	0.14243	0.0533752	0.23053	0.139294	0.171823	0.141997	0.145157	0.179664	0.22861	0.136874	0.0993134	0.243089	0.137751	0.131055																																																									
